<?xml version="1.0" ?><!DOCTYPE svg  PUBLIC '-//W3C//DTD SVG 1.1//EN'  'http://www.w3.org/Graphics/SVG/1.1/DTD/svg11.dtd'><svg height="512px" style="enable-background:new 0 0 512 512;" version="1.1" viewBox="0 0 512 512" width="512px" xml:space="preserve" xmlns="http://www.w3.org/2000/svg" xmlns:xlink="http://www.w3.org/1999/xlink"><g id="_x31_68_x2C__Twitter_x2C__Mail_x2C__Sms_x2C__Chat"><g><g><path d="M480,134.499v241c0,19.051-15.45,34.5-34.5,34.5h-375c-19.05,0-34.5-15.449-34.5-34.5v-241     c0-10.72,4.89-20.29,12.56-26.62l11.44,1.12l200,190l200-190l2.67-4.43C473.03,110.528,480,121.699,480,134.499z" style="fill:#414A56;"/></g><g><path d="M462.67,104.568l-2.67,4.43l-200,190l-200-190l-11.44-1.12c5.96-4.92,13.61-7.88,21.94-7.88h375     C451.75,99.999,457.61,101.659,462.67,104.568z" style="fill:#57606F;"/></g></g></g><g id="Layer_1"/></svg>