<?xml version="1.0" ?><!DOCTYPE svg  PUBLIC '-//W3C//DTD SVG 1.1//EN'  'http://www.w3.org/Graphics/SVG/1.1/DTD/svg11.dtd'><svg height="512px" style="enable-background:new 0 0 512 512;" version="1.1" viewBox="0 0 512 512" width="512px" xml:space="preserve" xmlns="http://www.w3.org/2000/svg" xmlns:xlink="http://www.w3.org/1999/xlink"><g id="_x31_75_x2C__Search_x2C__Magnify_x2C__Tool_x2C__Max"><g><g><g><path d="M435,443.998c-2.56,0-5.118-0.977-7.071-2.928l-84.86-84.861c-3.905-3.904-3.905-10.236,0-14.143      c3.906-3.904,10.236-3.904,14.143,0l84.86,84.861c3.905,3.904,3.905,10.236,0,14.143      C440.118,443.021,437.56,443.998,435,443.998z" style="fill:#707487;"/></g></g><g><path d="M350.14,122.869c62.49,62.48,62.49,163.79,0,226.27c-62.479,62.49-163.79,62.49-226.27,0     c-62.49-62.48-62.49-163.79,0-226.27C186.35,60.378,287.66,60.378,350.14,122.869z" style="fill:#D7DEED;"/></g></g></g><g id="Layer_1"/></svg>